<svg version="1.1" id="Layer_1" xmlns="http://www.w3.org/2000/svg" xmlns:xlink="http://www.w3.org/1999/xlink" x="0px" y="0px"
	 width="100%" viewBox="0 0 800 800" enable-background="new 0 0 800 800" xml:space="preserve">
<path fill="#000000" opacity="1.000000" stroke="none" 
	d="
M464.000000,801.000000 
	C309.333344,801.000000 155.166672,801.000000 1.000000,801.000000 
	C1.000000,534.333313 1.000000,267.666656 1.000000,1.000000 
	C267.666656,1.000000 534.333313,1.000000 801.000000,1.000000 
	C801.000000,267.666656 801.000000,534.333313 801.000000,801.000000 
	C688.833313,801.000000 576.666687,801.000000 464.000000,801.000000 
M385.874207,732.970032 
	C389.564301,733.314270 393.259766,733.985107 396.943268,733.925049 
	C402.284546,733.837952 407.617279,733.222595 413.873962,732.980408 
	C418.638428,732.657715 423.415100,732.458069 428.164734,731.986084 
	C437.462036,731.062134 446.945709,730.863586 455.989868,728.786682 
	C473.532074,724.758179 491.067719,720.384460 508.161041,714.793274 
	C532.820557,706.727112 555.853882,694.924927 577.654602,680.834473 
	C600.748352,665.908325 622.027466,648.701721 640.243835,628.074402 
	C651.713928,615.086182 662.685547,601.580383 672.936523,587.613647 
	C684.721924,571.556335 694.224243,554.014404 701.990662,535.651855 
	C706.727661,524.452148 711.465637,513.149658 714.827454,501.496368 
	C719.457397,485.447357 723.392090,469.136566 726.466187,452.720978 
	C728.599304,441.330200 728.781128,429.573975 729.971680,417.066620 
	C729.927368,406.050140 729.883118,395.033630 729.982605,383.109680 
	C729.665039,379.350555 729.531860,375.565063 728.997925,371.836914 
	C726.708130,355.850281 725.584045,339.557678 721.664001,323.972992 
	C713.892822,293.077850 703.658142,262.944855 686.167786,235.316437 
	C686.427246,234.903992 686.769348,234.522003 686.934143,234.074692 
	C692.974731,217.680862 698.747253,201.182465 705.117432,184.918060 
	C709.075317,174.812729 713.532654,164.853073 718.506531,155.210083 
	C723.196289,146.117935 725.351868,135.391403 734.391968,128.878708 
	C734.793274,128.589600 734.908997,127.777390 734.986084,127.186432 
	C735.343567,124.447479 735.787720,121.706116 735.890381,118.954025 
	C735.934631,117.767685 735.592468,116.174660 734.802551,115.411636 
	C728.535950,109.358627 721.850037,103.981209 714.172058,103.816208 
	C711.818604,101.010178 710.517517,97.921570 708.626282,97.503662 
	C703.732666,96.422295 698.341125,95.376396 693.575562,96.368515 
	C681.450256,98.892822 669.528137,102.430527 657.583801,105.773819 
	C649.648132,107.995056 641.872131,110.792336 633.922913,112.958092 
	C617.411377,117.456581 600.832092,121.706543 583.835388,125.504257 
	C580.845398,123.503105 577.922852,121.391571 574.854614,119.518623 
	C554.162781,106.887772 532.626160,96.053200 509.753235,87.821342 
	C489.906982,80.678749 469.560516,75.535950 448.820709,72.218864 
	C436.690430,70.278778 424.274994,70.121849 411.058990,69.030510 
	C402.385315,69.075134 393.711670,69.119759 384.112274,69.015961 
	C373.158508,70.000977 362.070007,70.228073 351.282135,72.146103 
	C334.500519,75.129791 317.761871,78.658524 301.297882,83.053391 
	C277.727356,89.345284 255.830902,99.815498 234.555023,111.710396 
	C213.319748,123.582596 193.464432,137.456253 175.803696,154.033554 
	C162.338409,166.672775 150.170395,180.749435 137.963013,194.658585 
	C124.460617,210.043274 113.762749,227.462723 104.234703,245.502167 
	C90.944099,270.665253 80.182373,296.920715 74.671211,324.943756 
	C71.117592,343.013123 67.469437,361.250885 66.365112,379.564026 
	C65.183563,399.157867 64.639870,419.003510 67.981743,438.604279 
	C70.228539,451.782166 71.856720,465.092041 74.715256,478.133881 
	C81.568192,509.399689 93.926819,538.565857 109.715309,566.342346 
	C121.382744,586.868713 135.131958,605.948425 151.025024,623.318176 
	C170.880432,645.018555 192.867264,664.369873 217.758865,680.298523 
	C238.851685,693.796204 261.040558,705.103088 284.523315,713.676025 
	C304.088501,720.818726 324.115692,726.603149 344.903534,729.018005 
	C358.241974,730.567627 371.642517,731.582520 385.874207,732.970032 
z"/>
<path fill="#8229E7" opacity="1.000000" stroke="none" 
	d="
M729.834839,417.981049 
	C728.781128,429.573975 728.599304,441.330200 726.466187,452.720978 
	C723.392090,469.136566 719.457397,485.447357 714.827454,501.496368 
	C711.465637,513.149658 706.727661,524.452148 701.990662,535.651855 
	C694.224243,554.014404 684.721924,571.556335 672.936523,587.613647 
	C662.685547,601.580383 651.713928,615.086182 640.243835,628.074402 
	C622.027466,648.701721 600.748352,665.908325 577.654602,680.834473 
	C555.853882,694.924927 532.820557,706.727112 508.161041,714.793274 
	C491.067719,720.384460 473.532074,724.758179 455.989868,728.786682 
	C446.945709,730.863586 437.462036,731.062134 428.164734,731.986084 
	C423.415100,732.458069 418.638428,732.657715 413.050476,732.723755 
	C403.156403,732.590454 394.085815,732.713806 385.015228,732.837097 
	C371.642517,731.582520 358.241974,730.567627 344.903534,729.018005 
	C324.115692,726.603149 304.088501,720.818726 284.523315,713.676025 
	C261.040558,705.103088 238.851685,693.796204 217.758865,680.298523 
	C192.867264,664.369873 170.880432,645.018555 151.025024,623.318176 
	C135.131958,605.948425 121.382744,586.868713 109.715309,566.342346 
	C93.926819,538.565857 81.568192,509.399689 74.715256,478.133881 
	C71.856720,465.092041 70.228539,451.782166 67.981743,438.604279 
	C64.639870,419.003510 65.183563,399.157867 66.365112,379.564026 
	C67.469437,361.250885 71.117592,343.013123 74.671211,324.943756 
	C80.182373,296.920715 90.944099,270.665253 104.234703,245.502167 
	C113.762749,227.462723 124.460617,210.043274 137.963013,194.658585 
	C150.170395,180.749435 162.338409,166.672775 175.803696,154.033554 
	C193.464432,137.456253 213.319748,123.582596 234.555023,111.710396 
	C255.830902,99.815498 277.727356,89.345284 301.297882,83.053391 
	C317.761871,78.658524 334.500519,75.129791 351.282135,72.146103 
	C362.070007,70.228073 373.158508,70.000977 384.938599,69.275352 
	C394.505859,69.410744 403.246857,69.286736 411.987823,69.162727 
	C424.274994,70.121849 436.690430,70.278778 448.820709,72.218864 
	C469.560516,75.535950 489.906982,80.678749 509.753235,87.821342 
	C532.626160,96.053200 554.162781,106.887772 574.854614,119.518623 
	C577.922852,121.391571 580.845398,123.503105 583.885254,126.116348 
	C582.872009,127.166183 581.839966,127.712845 580.741272,128.025650 
	C557.269592,134.707962 533.769531,141.292526 510.341187,148.122864 
	C507.652832,148.906616 505.304047,150.955460 502.889191,152.555649 
	C498.362122,155.555527 496.349060,160.320007 493.790924,164.873215 
	C492.040558,167.988647 488.732086,170.186966 489.782837,174.243698 
	C481.687164,171.591217 473.964447,169.086197 466.214661,166.668106 
	C447.250305,160.750809 427.751160,157.796082 407.967529,157.115967 
	C397.901245,156.769913 387.709869,156.970459 377.722443,158.160660 
	C363.501190,159.855392 349.213074,161.851532 335.316132,165.216537 
	C310.150208,171.310226 286.695221,181.862915 265.017975,196.060196 
	C246.231354,208.364304 229.310226,222.809891 214.499100,239.862686 
	C202.088211,254.151962 191.296463,269.419189 182.455307,286.084961 
	C174.198135,301.649902 167.669556,317.912598 162.914612,334.918457 
	C157.785431,353.262726 154.671021,371.916321 154.119095,390.916931 
	C153.831360,400.821899 154.088074,410.822266 155.146027,420.666992 
	C156.521286,433.464478 157.919037,446.417175 161.169342,458.814850 
	C165.066177,473.678650 170.693222,488.114410 176.065674,502.551422 
	C177.863663,507.383026 181.181290,511.649109 183.612610,516.434326 
	C182.472519,517.848938 181.104614,518.858765 180.649933,520.182312 
	C178.896271,525.287048 177.894958,530.798950 171.500107,532.479309 
	C170.926422,532.630005 170.470612,533.776672 170.224487,534.545471 
	C165.940140,547.927124 156.536942,557.068481 145.391800,564.835693 
	C143.981934,565.818298 142.425156,567.247620 141.933365,568.788269 
	C137.020340,584.179321 137.204666,585.707214 148.823074,593.530029 
	C149.760544,594.161255 150.670013,594.834045 152.123032,595.863342 
	C158.313110,585.831848 170.898849,580.823914 172.324127,567.517151 
	C172.385834,566.940979 173.026566,566.416016 173.425522,565.888306 
	C180.030777,557.150818 186.615265,548.397278 193.301025,539.721863 
	C193.795746,539.079834 195.026398,539.005005 196.190460,538.900269 
	C197.627563,540.723755 198.803040,542.303589 199.948639,543.904846 
	C216.379105,566.870483 236.303314,586.248352 259.577881,602.231506 
	C274.827911,612.703979 291.128052,621.082764 308.238373,628.107910 
	C332.510132,638.073547 357.863708,643.220825 383.838593,644.804749 
	C405.246338,646.110229 426.592346,644.472229 447.750000,640.132568 
	C473.492249,634.852539 497.792053,625.718262 520.385864,612.657898 
	C546.427429,597.604553 569.039307,578.258972 588.028503,554.664124 
	C605.083496,533.472534 618.339539,510.276031 627.589722,484.770538 
	C637.397034,457.728760 642.366577,429.880066 642.096375,401.006042 
	C641.944641,384.799347 640.531372,368.812500 637.675049,352.499176 
	C637.870789,350.731873 638.037720,349.375214 638.230042,347.811920 
	C644.871033,350.925812 646.165527,350.336182 650.160156,344.923279 
	C652.757446,341.403748 656.622314,338.640198 654.323425,333.406921 
	C654.153442,333.019897 654.791382,332.203949 655.164917,331.664337 
	C657.529785,328.247864 659.405396,324.270325 662.422546,321.575043 
	C668.317566,316.308868 667.703186,309.542419 668.405396,302.806824 
	C669.256470,294.643585 670.161621,286.385681 672.215759,278.473083 
	C674.914856,268.075500 678.763855,257.976898 682.103943,247.745026 
	C683.377869,243.842484 684.611938,239.926941 685.864136,236.017334 
	C703.658142,262.944855 713.892822,293.077850 721.664001,323.972992 
	C725.584045,339.557678 726.708130,355.850281 728.997925,371.836914 
	C729.531860,375.565063 729.665039,379.350555 729.723755,383.928406 
	C729.588196,395.825073 729.711487,406.903076 729.834839,417.981049 
z"/>
<path fill="#FF8A0C" opacity="1.000000" stroke="none" 
	d="
M686.015991,235.666885 
	C684.611938,239.926941 683.377869,243.842484 682.103943,247.745026 
	C678.763855,257.976898 674.914856,268.075500 672.215759,278.473083 
	C670.161621,286.385681 669.256470,294.643585 668.405396,302.806824 
	C667.703186,309.542419 668.317566,316.308868 662.422546,321.575043 
	C659.405396,324.270325 657.529785,328.247864 655.164917,331.664337 
	C654.791382,332.203949 654.153442,333.019897 654.323425,333.406921 
	C656.622314,338.640198 652.757446,341.403748 650.160156,344.923279 
	C646.165527,350.336182 644.871033,350.925812 638.230042,347.811920 
	C638.037720,349.375214 637.870789,350.731873 637.459778,352.252319 
	C637.130432,351.758820 637.228271,350.627228 636.933289,350.513428 
	C629.042603,347.468597 628.977356,347.486023 629.018616,339.589264 
	C629.060547,331.549011 628.127625,323.984955 620.078613,319.526611 
	C617.220947,322.862793 613.621094,322.836975 609.902222,320.612366 
	C609.765869,312.241241 609.469543,304.161499 609.099976,295.652191 
	C609.710876,290.269531 610.395142,285.316406 611.386536,280.208496 
	C615.456848,263.601471 619.232788,247.152191 622.956116,230.690994 
	C623.221008,229.519882 623.099243,228.261322 623.227722,225.565231 
	C612.993103,234.723541 603.741028,242.967804 594.563538,251.294373 
	C593.956848,251.844757 593.919373,253.022491 593.243774,253.955170 
	C582.935242,263.481262 572.792542,272.754517 563.119934,282.494690 
	C552.238403,293.452332 541.780884,304.831085 530.838013,316.183838 
	C520.337830,326.108826 510.112213,335.849670 499.995544,345.702332 
	C499.285187,346.394165 499.379883,347.912628 498.967346,349.356689 
	C489.634918,358.869324 480.490112,368.127472 471.224182,377.262726 
	C453.251740,394.981720 435.231445,412.652283 417.181335,430.292175 
	C413.656097,433.737305 409.781464,436.826721 406.281586,440.295746 
	C393.445160,453.018982 380.366302,465.521301 368.010620,478.699249 
	C355.239471,492.320251 343.439545,506.848907 330.757416,520.557434 
	C323.240173,528.683044 314.988434,536.155640 306.780823,543.606567 
	C301.492157,548.407654 295.902069,553.696411 287.780731,549.820496 
	C283.254425,547.660278 279.324249,544.112305 273.757172,544.808228 
	C273.194672,544.878540 272.367645,543.969971 271.882202,543.345581 
	C266.515015,536.441711 262.485474,528.968140 262.356506,519.597412 
	C262.417297,511.165894 262.292725,503.097229 262.096375,494.607117 
	C262.575134,490.998596 263.240204,487.826355 263.654114,484.621643 
	C264.772522,475.962616 268.671509,468.209045 271.310181,460.042084 
	C272.712402,455.701996 272.489563,450.836884 273.000244,446.208771 
	C269.467499,448.985626 267.054291,451.828186 264.760895,454.764282 
	C254.842148,467.462921 245.139587,480.335876 234.988892,492.845612 
	C229.580673,499.510742 223.385239,505.533844 217.610733,511.906189 
	C213.863693,516.041260 207.170273,517.625244 206.619141,524.596252 
	C206.579422,525.098511 205.454681,525.800293 204.750778,525.920837 
	C197.430649,527.173950 196.855087,533.034973 195.914932,538.666565 
	C195.026398,539.005005 193.795746,539.079834 193.301025,539.721863 
	C186.615265,548.397278 180.030777,557.150818 173.425522,565.888306 
	C173.026566,566.416016 172.385834,566.940979 172.324127,567.517151 
	C170.898849,580.823914 158.313110,585.831848 152.123032,595.863342 
	C150.670013,594.834045 149.760544,594.161255 148.823074,593.530029 
	C137.204666,585.707214 137.020340,584.179321 141.933365,568.788269 
	C142.425156,567.247620 143.981934,565.818298 145.391800,564.835693 
	C156.536942,557.068481 165.940140,547.927124 170.224487,534.545471 
	C170.470612,533.776672 170.926422,532.630005 171.500107,532.479309 
	C177.894958,530.798950 178.896271,525.287048 180.649933,520.182312 
	C181.104614,518.858765 182.472519,517.848938 184.065521,516.396362 
	C186.124329,515.974670 187.538589,515.851624 188.860489,515.736633 
	C188.967773,508.682037 192.023193,504.099121 196.672531,499.321777 
	C201.760574,494.093567 209.774673,490.536682 209.965714,481.376282 
	C210.144363,472.809052 217.958969,468.987183 222.502228,463.477142 
	C233.270126,450.417786 243.690994,437.219116 252.727737,422.885773 
	C257.394409,415.483856 262.887817,408.607330 267.896027,401.415619 
	C275.200165,390.927063 282.198822,380.219421 289.714630,369.886627 
	C295.760742,361.574371 302.848206,353.996948 308.611328,345.508057 
	C314.105103,337.415924 318.376129,328.501984 323.431183,320.097504 
	C324.613556,318.131653 326.784698,316.757599 328.512878,315.123932 
	C329.663269,314.036469 331.130798,313.158142 331.946991,311.864777 
	C336.026245,305.401031 339.634033,298.620117 343.991486,292.356964 
	C348.451385,285.946533 353.309662,285.279785 360.310394,288.611206 
	C362.425415,289.617706 365.026215,289.718964 367.432159,289.978577 
	C378.140808,291.134125 382.871765,297.676697 378.042358,308.618591 
	C373.256531,319.461761 367.299469,329.844635 363.221832,340.931671 
	C355.236450,362.643707 348.171936,384.695374 340.822449,406.638672 
	C340.172668,408.578735 340.228882,410.755280 339.784546,414.135254 
	C346.293701,408.230896 351.801666,403.736145 356.720764,398.669647 
	C367.354523,387.717285 377.478699,376.265686 388.231659,365.435608 
	C393.400879,360.229340 399.785187,356.248871 405.153412,351.216370 
	C413.039307,343.823639 420.697449,336.163422 428.089142,328.276550 
	C433.223267,322.798431 437.454895,316.467926 442.649933,311.055969 
	C445.848907,307.723358 450.396515,305.722382 453.824188,302.565033 
	C462.608582,294.473511 471.061615,286.023529 479.741760,277.816925 
	C482.663086,275.054993 486.269623,272.939575 488.866364,269.928009 
	C495.357483,262.399902 501.365631,254.457260 507.760132,246.842667 
	C509.382294,244.910980 510.814178,243.427338 510.135620,240.562271 
	C509.828369,239.265076 510.551575,237.215408 511.530426,236.213486 
	C515.028259,232.633102 518.941162,229.461227 522.492676,225.929306 
	C525.277710,223.159683 527.504272,219.794891 530.436462,217.214462 
	C535.139282,213.075806 540.220459,209.367142 545.340088,205.467346 
	C546.268066,203.548492 546.997742,201.639008 547.727417,199.729538 
	C547.161255,199.245224 546.595154,198.760910 546.028992,198.276596 
	C544.140930,199.486359 542.252930,200.696136 539.883179,201.826630 
	C529.688599,203.303345 519.937927,204.659531 510.276825,206.488571 
	C504.270294,207.625702 499.679718,206.077820 495.924286,200.441116 
	C497.384277,199.346344 498.857483,198.241638 500.321350,197.143921 
	C500.126343,197.108963 499.948395,197.022110 499.800842,197.058487 
	C492.627167,198.825821 490.442810,193.393066 487.956512,188.669113 
	C485.728821,184.436523 486.844635,180.842361 490.540161,177.797409 
	C491.012177,177.408508 490.304626,175.587997 490.143524,174.430710 
	C488.732086,170.186966 492.040558,167.988647 493.790924,164.873215 
	C496.349060,160.320007 498.362122,155.555527 502.889191,152.555649 
	C505.304047,150.955460 507.652832,148.906616 510.341187,148.122864 
	C533.769531,141.292526 557.269592,134.707962 580.741272,128.025650 
	C581.839966,127.712845 582.872009,127.166183 584.107910,126.393547 
	C600.832092,121.706543 617.411377,117.456581 633.922913,112.958092 
	C641.872131,110.792336 649.648132,107.995056 657.583801,105.773819 
	C669.528137,102.430527 681.450256,98.892822 693.575562,96.368515 
	C698.341125,95.376396 703.732666,96.422295 708.626282,97.503662 
	C710.517517,97.921570 711.818604,101.010178 714.172058,103.816208 
	C721.850037,103.981209 728.535950,109.358627 734.802551,115.411636 
	C735.592468,116.174660 735.934631,117.767685 735.890381,118.954025 
	C735.787720,121.706116 735.343567,124.447479 734.986084,127.186432 
	C734.908997,127.777390 734.793274,128.589600 734.391968,128.878708 
	C725.351868,135.391403 723.196289,146.117935 718.506531,155.210083 
	C713.532654,164.853073 709.075317,174.812729 705.117432,184.918060 
	C698.747253,201.182465 692.974731,217.680862 686.934143,234.074692 
	C686.769348,234.522003 686.427246,234.903992 686.015991,235.666885 
z"/>
<path fill="#9243EA" opacity="1.000000" stroke="none" 
	d="
M385.444702,732.903564 
	C394.085815,732.713806 403.156403,732.590454 412.590332,732.649902 
	C407.617279,733.222595 402.284546,733.837952 396.943268,733.925049 
	C393.259766,733.985107 389.564301,733.314270 385.444702,732.903564 
z"/>
<path fill="#9243EA" opacity="1.000000" stroke="none" 
	d="
M729.903259,417.523834 
	C729.711487,406.903076 729.588196,395.825073 729.651855,384.382141 
	C729.883118,395.033630 729.927368,406.050140 729.903259,417.523834 
z"/>
<path fill="#9243EA" opacity="1.000000" stroke="none" 
	d="
M411.523407,69.096619 
	C403.246857,69.286736 394.505859,69.410744 385.401428,69.349564 
	C393.711670,69.119759 402.385315,69.075134 411.523407,69.096619 
z"/>
<path fill="#000000" opacity="1.000000" stroke="none" 
	d="
M611.079407,280.363312 
	C610.395142,285.316406 609.710876,290.269531 609.030640,296.077515 
	C608.798645,298.357269 608.293762,299.797211 608.372681,301.204437 
	C608.740967,307.775818 609.270386,314.338196 609.742188,320.903778 
	C613.621094,322.836975 617.220947,322.862793 620.078613,319.526611 
	C628.127625,323.984955 629.060547,331.549011 629.018616,339.589264 
	C628.977356,347.486023 629.042603,347.468597 636.933289,350.513428 
	C637.228271,350.627228 637.130432,351.758820 637.430908,352.662964 
	C640.531372,368.812500 641.944641,384.799347 642.096375,401.006042 
	C642.366577,429.880066 637.397034,457.728760 627.589722,484.770538 
	C618.339539,510.276031 605.083496,533.472534 588.028503,554.664124 
	C569.039307,578.258972 546.427429,597.604553 520.385864,612.657898 
	C497.792053,625.718262 473.492249,634.852539 447.750000,640.132568 
	C426.592346,644.472229 405.246338,646.110229 383.838593,644.804749 
	C357.863708,643.220825 332.510132,638.073547 308.238373,628.107910 
	C291.128052,621.082764 274.827911,612.703979 259.577881,602.231506 
	C236.303314,586.248352 216.379105,566.870483 199.948639,543.904846 
	C198.803040,542.303589 197.627563,540.723755 196.190460,538.900269 
	C196.855087,533.034973 197.430649,527.173950 204.750778,525.920837 
	C205.454681,525.800293 206.579422,525.098511 206.619141,524.596252 
	C207.170273,517.625244 213.863693,516.041260 217.610733,511.906189 
	C223.385239,505.533844 229.580673,499.510742 234.988892,492.845612 
	C245.139587,480.335876 254.842148,467.462921 264.760895,454.764282 
	C267.054291,451.828186 269.467499,448.985626 273.000244,446.208771 
	C272.489563,450.836884 272.712402,455.701996 271.310181,460.042084 
	C268.671509,468.209045 264.772522,475.962616 263.654114,484.621643 
	C263.240204,487.826355 262.575134,490.998596 262.026855,495.042419 
	C262.076447,503.919525 262.123779,511.939850 262.171112,519.960205 
	C262.485474,528.968140 266.515015,536.441711 271.882202,543.345581 
	C272.367645,543.969971 273.194672,544.878540 273.757172,544.808228 
	C279.324249,544.112305 283.254425,547.660278 287.780731,549.820496 
	C295.902069,553.696411 301.492157,548.407654 306.780823,543.606567 
	C314.988434,536.155640 323.240173,528.683044 330.757416,520.557434 
	C343.439545,506.848907 355.239471,492.320251 368.010620,478.699249 
	C380.366302,465.521301 393.445160,453.018982 406.281586,440.295746 
	C409.781464,436.826721 413.656097,433.737305 417.181335,430.292175 
	C435.231445,412.652283 453.251740,394.981720 471.224182,377.262726 
	C480.490112,368.127472 489.634918,358.869324 499.271301,349.221924 
	C509.435638,339.060791 519.182495,329.363617 528.860962,319.598633 
	C529.832520,318.618378 530.389526,317.227173 531.138916,316.026672 
	C541.780884,304.831085 552.238403,293.452332 563.119934,282.494690 
	C572.792542,272.754517 582.935242,263.481262 593.431519,254.214020 
	C599.688232,263.071838 605.383789,271.717590 611.079407,280.363312 
z"/>
<path fill="#000000" opacity="1.000000" stroke="none" 
	d="
M489.782837,174.243698 
	C490.304626,175.587997 491.012177,177.408508 490.540161,177.797409 
	C486.844635,180.842361 485.728821,184.436523 487.956512,188.669113 
	C490.442810,193.393066 492.627167,198.825821 499.800842,197.058487 
	C499.948395,197.022110 500.126343,197.108963 500.321350,197.143921 
	C498.857483,198.241638 497.384277,199.346344 495.924286,200.441116 
	C499.679718,206.077820 504.270294,207.625702 510.276825,206.488571 
	C519.937927,204.659531 529.688599,203.303345 540.053589,201.936127 
	C542.184448,203.242172 543.663086,204.359467 545.141724,205.476746 
	C540.220459,209.367142 535.139282,213.075806 530.436462,217.214462 
	C527.504272,219.794891 525.277710,223.159683 522.492676,225.929306 
	C518.941162,229.461227 515.028259,232.633102 511.530426,236.213486 
	C510.551575,237.215408 509.828369,239.265076 510.135620,240.562271 
	C510.814178,243.427338 509.382294,244.910980 507.760132,246.842667 
	C501.365631,254.457260 495.357483,262.399902 488.866364,269.928009 
	C486.269623,272.939575 482.663086,275.054993 479.741760,277.816925 
	C471.061615,286.023529 462.608582,294.473511 453.824188,302.565033 
	C450.396515,305.722382 445.848907,307.723358 442.649933,311.055969 
	C437.454895,316.467926 433.223267,322.798431 428.089142,328.276550 
	C420.697449,336.163422 413.039307,343.823639 405.153412,351.216370 
	C399.785187,356.248871 393.400879,360.229340 388.231659,365.435608 
	C377.478699,376.265686 367.354523,387.717285 356.720764,398.669647 
	C351.801666,403.736145 346.293701,408.230896 339.784546,414.135254 
	C340.228882,410.755280 340.172668,408.578735 340.822449,406.638672 
	C348.171936,384.695374 355.236450,362.643707 363.221832,340.931671 
	C367.299469,329.844635 373.256531,319.461761 378.042358,308.618591 
	C382.871765,297.676697 378.140808,291.134125 367.432159,289.978577 
	C365.026215,289.718964 362.425415,289.617706 360.310394,288.611206 
	C353.309662,285.279785 348.451385,285.946533 343.991486,292.356964 
	C339.634033,298.620117 336.026245,305.401031 331.946991,311.864777 
	C331.130798,313.158142 329.663269,314.036469 328.512878,315.123932 
	C326.784698,316.757599 324.613556,318.131653 323.431183,320.097504 
	C318.376129,328.501984 314.105103,337.415924 308.611328,345.508057 
	C302.848206,353.996948 295.760742,361.574371 289.714630,369.886627 
	C282.198822,380.219421 275.200165,390.927063 267.896027,401.415619 
	C262.887817,408.607330 257.394409,415.483856 252.727737,422.885773 
	C243.690994,437.219116 233.270126,450.417786 222.502228,463.477142 
	C217.958969,468.987183 210.144363,472.809052 209.965714,481.376282 
	C209.774673,490.536682 201.760574,494.093567 196.672531,499.321777 
	C192.023193,504.099121 188.967773,508.682037 188.860489,515.736633 
	C187.538589,515.851624 186.124329,515.974670 184.257187,516.135742 
	C181.181290,511.649109 177.863663,507.383026 176.065674,502.551422 
	C170.693222,488.114410 165.066177,473.678650 161.169342,458.814850 
	C157.919037,446.417175 156.521286,433.464478 155.146027,420.666992 
	C154.088074,410.822266 153.831360,400.821899 154.119095,390.916931 
	C154.671021,371.916321 157.785431,353.262726 162.914612,334.918457 
	C167.669556,317.912598 174.198135,301.649902 182.455307,286.084961 
	C191.296463,269.419189 202.088211,254.151962 214.499100,239.862686 
	C229.310226,222.809891 246.231354,208.364304 265.017975,196.060196 
	C286.695221,181.862915 310.150208,171.310226 335.316132,165.216537 
	C349.213074,161.851532 363.501190,159.855392 377.722443,158.160660 
	C387.709869,156.970459 397.901245,156.769913 407.967529,157.115967 
	C427.751160,157.796082 447.250305,160.750809 466.214661,166.668106 
	C473.964447,169.086197 481.687164,171.591217 489.782837,174.243698 
z"/>
<path fill="#832AE5" opacity="1.000000" stroke="none" 
	d="
M611.386536,280.208496 
	C605.383789,271.717590 599.688232,263.071838 593.804871,254.167267 
	C593.919373,253.022491 593.956848,251.844757 594.563538,251.294373 
	C603.741028,242.967804 612.993103,234.723541 623.227722,225.565231 
	C623.099243,228.261322 623.221008,229.519882 622.956116,230.690994 
	C619.232788,247.152191 615.456848,263.601471 611.386536,280.208496 
z"/>
<path fill="#FF941F" opacity="1.000000" stroke="none" 
	d="
M530.838013,316.183838 
	C530.389526,317.227173 529.832520,318.618378 528.860962,319.598633 
	C519.182495,329.363617 509.435638,339.060791 499.404175,348.911896 
	C499.379883,347.912628 499.285187,346.394165 499.995544,345.702332 
	C510.112213,335.849670 520.337830,326.108826 530.838013,316.183838 
z"/>
<path fill="#FD9A37" opacity="1.000000" stroke="none" 
	d="
M609.902222,320.612366 
	C609.270386,314.338196 608.740967,307.775818 608.372681,301.204437 
	C608.293762,299.797211 608.798645,298.357269 609.103943,296.507080 
	C609.469543,304.161499 609.765869,312.241241 609.902222,320.612366 
z"/>
<path fill="#832AE5" opacity="1.000000" stroke="none" 
	d="
M545.340088,205.467346 
	C543.663086,204.359467 542.184448,203.242172 540.535400,202.015396 
	C542.252930,200.696136 544.140930,199.486359 546.028992,198.276596 
	C546.595154,198.760910 547.161255,199.245224 547.727417,199.729538 
	C546.997742,201.639008 546.268066,203.548492 545.340088,205.467346 
z"/>
<path fill="#FF941F" opacity="1.000000" stroke="none" 
	d="
M262.356506,519.597412 
	C262.123779,511.939850 262.076447,503.919525 262.098633,495.463867 
	C262.292725,503.097229 262.417297,511.165894 262.356506,519.597412 
z"/>
</svg>